<svg xmlns="http://www.w3.org/2000/svg" width="240" height="240" viewBox="0 0 240 240" fill="none">
  <defs>
    <linearGradient id="g1" x1="30" y1="210" x2="210" y2="30" gradientUnits="userSpaceOnUse">
      <stop stop-color="#1f6feb"/>
      <stop offset="1" stop-color="#8a5cf6"/>
    </linearGradient>
    <linearGradient id="g2" x1="50" y1="190" x2="190" y2="50" gradientUnits="userSpaceOnUse">
      <stop stop-color="#f08c00"/>
      <stop offset="1" stop-color="#f4c430"/>
    </linearGradient>
  </defs>
  <rect x="20" y="20" width="200" height="200" rx="42" fill="url(#g1)"/>
  <path d="M120 54c-25 0-46 18-46 42 0 24 21 40 46 40 17 0 31-5 42-16-2 31-17 64-42 86-23-22-40-55-42-86-1-10 2-21 8-30 9-13 24-21 42-21 12 0 23 4 32 10-8-16-24-25-40-25Z" fill="white" opacity="0.9"/>
  <circle cx="120" cy="96" r="14" fill="url(#g2)"/>
</svg>
